<?xml version="1.0" encoding="utf-8"?>
<!-- Generator: Adobe Illustrator 16.0.0, SVG Export Plug-In . SVG Version: 6.00 Build 0)  -->
<!DOCTYPE svg PUBLIC "-//W3C//DTD SVG 1.1//EN" "http://www.w3.org/Graphics/SVG/1.1/DTD/svg11.dtd">
<svg version="1.1" id="Group_35" xmlns="http://www.w3.org/2000/svg" xmlns:xlink="http://www.w3.org/1999/xlink" x="0px" y="0px"
	 width="56px" height="56px" viewBox="0 0 56 56" enable-background="new 0 0 56 56" xml:space="preserve">
<rect opacity="0" fill="#FFFFFF" width="56" height="56"/>
<path id="Path_66" fill="#00BBC1" d="M11.614,28.874c0.026-9.042,7.376-16.35,16.417-16.325c0.142,0,0.285,0.002,0.427,0.007
	c0.382-0.004,0.765,0.016,1.146,0.059c0.928,0.119,1.604,0.939,1.543,1.873c-0.064,0.941-0.879,1.654-1.82,1.593
	c-2.059-0.162-4.127,0.13-6.06,0.856c-6.587,2.61-9.812,10.066-7.202,16.654c2.61,6.588,10.067,9.812,16.654,7.202
	c4.465-1.77,7.568-5.885,8.041-10.665c0.428-3.704-0.836-7.403-3.441-10.071c-0.482-0.401-0.757-1-0.746-1.627
	c0.025-0.7,0.488-1.307,1.156-1.515c0.67-0.252,1.425-0.062,1.896,0.476c1.964,1.974,3.381,4.425,4.112,7.112
	c2.414,8.688-2.672,17.687-11.359,20.101c-8.687,2.414-17.686-2.672-20.1-11.359c-0.147-0.528-0.267-1.064-0.36-1.604
	C11.769,30.727,11.713,29.803,11.614,28.874z"/>
<path id="Path_67" fill="#FFFFFF" d="M28.504,3.758c5.264,0.085,10.359,1.861,14.535,5.065c0.811,0.526,1.041,1.61,0.515,2.421
	c-0.018,0.027-0.036,0.054-0.055,0.079c-0.556,0.777-1.636,0.957-2.412,0.401c-0.036-0.025-0.071-0.053-0.104-0.081
	c-7.646-5.81-18.216-5.845-25.9-0.087c-0.309,0.251-0.659,0.446-1.036,0.576c-0.807,0.224-1.656-0.181-1.991-0.949
	c-0.347-0.761-0.107-1.66,0.572-2.147c1.867-1.461,3.934-2.647,6.138-3.519C21.867,4.307,25.174,3.709,28.504,3.758z"/>
<path id="Path_68" fill="#FFFFFF" d="M6.547,26.053c0,1.674-0.134,3.357,0.025,5.015c0.492,5.568,3.186,10.711,7.485,14.285
	c1.684,1.428,3.579,2.586,5.616,3.436c0.396,0.17,0.746,0.432,1.02,0.766c0.453,0.609,0.422,1.453-0.075,2.027
	c-0.495,0.619-1.344,0.828-2.069,0.507c-3.552-1.413-6.724-3.639-9.259-6.5c-3.234-3.601-5.345-8.069-6.073-12.854
	c-0.371-2.326-0.388-4.694-0.053-7.025c0.124-0.91,0.942-1.561,1.857-1.475c0.903,0.057,1.59,0.835,1.533,1.739
	C6.552,26,6.55,26.026,6.547,26.053z"/>
<path id="Path_69" fill="#FFFFFF" d="M53.107,29.012c-0.063,10.09-6.165,19.16-15.487,23.021c-0.739,0.381-1.642,0.217-2.2-0.4
	c-0.527-0.572-0.578-1.438-0.124-2.068c0.288-0.346,0.655-0.617,1.07-0.791c5.564-2.313,9.894-6.868,11.919-12.543
	c1.158-3.162,1.543-6.553,1.123-9.894c-0.203-0.942,0.397-1.87,1.34-2.072s1.87,0.397,2.072,1.34c0.021,0.1,0.034,0.202,0.037,0.303
	C52.98,26.939,53.029,27.978,53.107,29.012z"/>
</svg>
